<svg width="118" height="118" viewBox="0 0 118 118" fill="none" xmlns="http://www.w3.org/2000/svg">
<path d="M59.2 0.699997C26.8841 0.699997 0.699997 27.2953 0.699997 60.1187C0.699997 87.9519 19.5716 111.259 45.032 117.7C44.7464 116.907 44.575 115.979 44.575 114.818V104.663C42.1946 104.663 38.2146 104.663 37.2244 104.663C33.2254 104.663 29.6644 102.923 27.9314 99.6732C26.0271 96.0563 25.6844 90.5438 20.9427 87.1589C19.5335 86.0371 20.5999 84.7605 22.2185 84.9346C25.2273 85.7856 27.7029 87.8746 30.0452 90.9693C32.3875 94.0834 33.4729 94.7797 37.8338 94.7797C39.9476 94.7797 43.1087 94.6636 46.0794 94.1801C47.679 90.0602 50.4402 86.2692 53.8108 84.4704C34.3299 82.4395 25.0369 72.5944 25.0369 59.229C25.0369 53.4651 27.4554 47.9139 31.5496 43.2138C30.2166 38.5717 28.5218 29.0748 32.0638 25.4578C40.8426 25.4578 46.1365 31.2217 47.4124 32.7884C51.7732 31.2798 56.5721 30.4094 61.6185 30.4094C66.6648 30.4094 71.4827 31.2798 75.8626 32.8078C77.1194 31.2604 82.4134 25.4578 91.2112 25.4578C94.7723 29.0748 93.0584 38.6104 91.7063 43.2525C95.7815 47.9333 98.181 53.4844 98.181 59.229C98.181 72.575 88.888 82.4201 69.4451 84.4704C74.7962 87.2943 78.7 95.2826 78.7 101.279V114.818C78.7 115.34 78.5857 115.708 78.5286 116.153C101.323 108.029 117.7 86.0371 117.7 60.1187C117.7 27.2953 91.5159 0.699997 59.2 0.699997Z" fill="white"/>
</svg>
