<svg width="117" height="117" viewBox="0 0 117 117" fill="none" xmlns="http://www.w3.org/2000/svg">
<path d="M58.4999 10.5408C74.1201 10.5408 75.9702 10.6002 82.1388 10.8816C87.8425 11.142 90.94 12.095 93.0016 12.8959C95.732 13.9571 97.681 15.225 99.728 17.272C101.775 19.319 103.043 21.268 104.104 23.9984C104.905 26.06 105.858 29.1575 106.118 34.861C106.4 41.0298 106.459 42.8799 106.459 58.5001C106.459 74.1204 106.4 75.9704 106.118 82.139C105.858 87.8427 104.905 90.9402 104.104 93.0019C103.043 95.7323 101.775 97.6812 99.728 99.7282C97.681 101.775 95.732 103.043 93.0016 104.104C90.94 104.905 87.8425 105.858 82.1388 106.119C75.9711 106.4 74.1211 106.459 58.4999 106.459C42.8787 106.459 41.0286 106.4 34.861 106.119C29.1573 105.858 26.0598 104.905 23.9984 104.104C21.2677 103.043 19.3188 101.775 17.2718 99.7282C15.2248 97.6812 13.9569 95.7323 12.8959 93.0019C12.0947 90.9402 11.1417 87.8427 10.8814 82.1393C10.6 75.9704 10.5405 74.1204 10.5405 58.5001C10.5405 42.8799 10.6 41.0298 10.8814 34.8612C11.1417 29.1575 12.0947 26.06 12.8959 23.9984C13.9569 21.268 15.2248 19.319 17.2718 17.272C19.3188 15.225 21.2677 13.9571 23.9984 12.8959C26.0598 12.095 29.1573 11.142 34.8607 10.8816C41.0296 10.6002 42.8796 10.5408 58.4999 10.5408ZM58.4999 0C42.6121 0 40.6202 0.0673427 34.3805 0.35204C28.1536 0.636272 23.9013 1.62505 20.18 3.07129C16.3332 4.5663 13.0707 6.56661 9.81856 9.81879C6.56638 13.071 4.56607 16.3334 3.07106 20.1803C1.62482 23.9015 0.63604 28.1539 0.351807 34.3808C0.0671105 40.6202 0 42.6124 0 58.5001C0 74.3879 0.0671105 76.3801 0.351807 82.6195C0.63604 88.8463 1.62482 93.0987 3.07106 96.82C4.56607 100.667 6.56638 103.929 9.81856 107.181C13.0707 110.434 16.3332 112.434 20.18 113.929C23.9013 115.375 28.1536 116.364 34.3805 116.648C40.6202 116.933 42.6121 117 58.4999 117C74.3876 117 76.3798 116.933 82.6192 116.648C88.8461 116.364 93.0985 115.375 96.8197 113.929C100.667 112.434 103.929 110.434 107.181 107.181C110.433 103.929 112.434 100.667 113.929 96.82C115.375 93.0987 116.364 88.8463 116.648 82.6195C116.933 76.3801 117 74.3879 117 58.5001C117 42.6124 116.933 40.6202 116.648 34.3808C116.364 28.1539 115.375 23.9015 113.929 20.1803C112.434 16.3334 110.433 13.071 107.181 9.81879C103.929 6.56661 100.667 4.5663 96.8197 3.07129C93.0985 1.62505 88.8461 0.636272 82.6192 0.35204C76.3798 0.0673427 74.3876 0 58.4999 0ZM58.4999 28.4595C41.909 28.4595 28.4592 41.9092 28.4592 58.5001C28.4592 75.091 41.909 88.5408 58.4999 88.5408C75.0908 88.5408 88.5405 75.091 88.5405 58.5001C88.5405 41.9092 75.0908 28.4595 58.4999 28.4595ZM58.4999 78.0002C47.7304 78.0002 38.9998 69.2696 38.9998 58.5001C38.9998 47.7306 47.7304 39 58.4999 39C69.2694 39 78 47.7306 78 58.5001C78 69.2696 69.2694 78.0002 58.4999 78.0002ZM96.7473 27.2726C96.7473 31.1497 93.6045 34.2927 89.7274 34.2927C85.8503 34.2927 82.7073 31.1497 82.7073 27.2726C82.7073 23.3955 85.8503 20.2527 89.7274 20.2527C93.6045 20.2527 96.7473 23.3955 96.7473 27.2726Z" fill="white"/>
</svg>
