<svg width="94" height="93" viewBox="0 0 94 93" fill="none" xmlns="http://www.w3.org/2000/svg">
<path d="M11.185 0.0800018C5.004 0.0800018 0.001 5.092 0 11.259C0 17.432 5.003 22.443 11.186 22.443C17.352 22.443 22.362 17.432 22.362 11.259C22.362 5.091 17.351 0.0800018 11.185 0.0800018Z" fill="white"/>
<path d="M20.825 30.926H1.538V92.98H20.825V30.926Z" fill="white"/>
<path d="M69.925 29.383C60.543 29.383 54.252 34.527 51.677 39.405H51.419V30.926H32.921H32.92V92.979H52.19V62.281C52.19 54.188 53.731 46.349 63.765 46.349C73.655 46.349 73.787 55.605 73.787 62.8V92.978H93.06V58.942C93.06 42.235 89.455 29.383 69.925 29.383Z" fill="white"/>
</svg>
